<svg xmlns="http://www.w3.org/2000/svg" viewBox="0 0 12.87 12.86"><defs><style>.cls-1{fill:#e8fcfe;}</style></defs><title>close</title><g id="Layer_2" data-name="Layer 2"><g id="Layer_1-2" data-name="Layer 1"><g id="close"><g id="Group_184" data-name="Group 184"><path id="Path_72" data-name="Path 72" class="cls-1" d="M7.85,6.43l4.81-4.81a.71.71,0,0,0,0-1h0L12.23.21a.69.69,0,0,0-1,0L6.43,5,1.62.21a.7.7,0,0,0-1,0h0L.21.63a.7.7,0,0,0,0,1h0L5,6.43.21,11.24a.69.69,0,0,0,0,1l.42.43a.71.71,0,0,0,1,0h0L6.43,7.85l4.81,4.81a.7.7,0,0,0,.5.2h0a.7.7,0,0,0,.5-.2l.42-.43a.71.71,0,0,0,0-1Z"/></g></g></g></g></svg>