<svg xmlns="http://www.w3.org/2000/svg" viewBox="0 0 15.46 12.88"><defs><style>.cls-1{fill:#e8fcfe;}</style></defs><title>maximize</title><g id="Layer_2" data-name="Layer 2"><g id="Layer_1-2" data-name="Layer 1"><path id="Path_67" data-name="Path 67" class="cls-1" d="M11.11,10.3H4.34A1.77,1.77,0,0,1,2.57,8.53V4.34A1.78,1.78,0,0,1,4.34,2.58h6.77a1.76,1.76,0,0,1,1.77,1.76V8.53a1.77,1.77,0,0,1-1.77,1.77ZM4.34,3.54a.82.82,0,0,0-.8.8V8.53a.81.81,0,0,0,.8.8h6.77a.81.81,0,0,0,.8-.8V4.34a.82.82,0,0,0-.8-.8Z"/><path id="Path_68" data-name="Path 68" class="cls-1" d="M.48,5.15A.49.49,0,0,1,0,4.67V1.77A1.77,1.77,0,0,1,1.77,0h2.9a.48.48,0,0,1,.48.48A.48.48,0,0,1,4.67,1H1.77a.8.8,0,0,0-.8.8v2.9a.48.48,0,0,1-.48.48Z"/><path id="Path_69" data-name="Path 69" class="cls-1" d="M15,5.15a.48.48,0,0,1-.48-.48h0V1.77a.81.81,0,0,0-.8-.8h-2.9a.48.48,0,0,1-.48-.48A.48.48,0,0,1,10.79,0h2.9a1.77,1.77,0,0,1,1.77,1.77v2.9a.48.48,0,0,1-.49.48Z"/><path id="Path_70" data-name="Path 70" class="cls-1" d="M13.68,12.88h-2.9a.49.49,0,0,1,0-1h2.9a.8.8,0,0,0,.8-.8V8.21a.49.49,0,0,1,1,0v2.9A1.77,1.77,0,0,1,13.68,12.88Z"/><path id="Path_71" data-name="Path 71" class="cls-1" d="M4.67,12.88H1.77A1.77,1.77,0,0,1,0,11.11V8.21a.48.48,0,0,1,.48-.48A.48.48,0,0,1,1,8.21v2.9a.81.81,0,0,0,.8.8h2.9a.48.48,0,0,1,0,1h0Z"/></g></g></svg>