<svg xmlns="http://www.w3.org/2000/svg" viewBox="0 0 38.83 37.22"><defs><style>.cls-1{fill:#c3c3c3;}</style></defs><title>filter-icon</title><g id="Layer_2" data-name="Layer 2"><g id="Layer_1-2" data-name="Layer 1"><g id="adjust"><g id="Group_119" data-name="Group 119"><g id="Group_118" data-name="Group 118"><path id="Path_43" data-name="Path 43" class="cls-1" d="M37.21,29.94H32.9a5.62,5.62,0,0,0-10.8,0H1.62a1.62,1.62,0,0,0,0,3.23H22.1a5.62,5.62,0,0,0,10.8,0h4.31a1.62,1.62,0,1,0,0-3.23ZM27.5,34a2.43,2.43,0,1,1,2.43-2.43A2.42,2.42,0,0,1,27.5,34Z"/></g></g><g id="Group_121" data-name="Group 121"><g id="Group_120" data-name="Group 120"><path id="Path_44" data-name="Path 44" class="cls-1" d="M37.21,4.05H32.9a5.63,5.63,0,0,0-10.8,0H1.62a1.62,1.62,0,0,0,0,3.24H22.1a5.63,5.63,0,0,0,10.8,0h4.31a1.62,1.62,0,0,0,0-3.24ZM27.5,8.1a2.43,2.43,0,1,1,2.43-2.43h0A2.44,2.44,0,0,1,27.5,8.1Z"/></g></g><g id="Group_123" data-name="Group 123"><g id="Group_122" data-name="Group 122"><path id="Path_45" data-name="Path 45" class="cls-1" d="M37.21,17H16.73a5.63,5.63,0,0,0-10.8,0H1.62a1.62,1.62,0,0,0,0,3.24H5.93a5.62,5.62,0,0,0,10.8,0H37.21a1.62,1.62,0,0,0,0-3.24ZM11.33,21a2.43,2.43,0,1,1,2.42-2.43h0A2.42,2.42,0,0,1,11.33,21Z"/></g></g></g></g></g></svg>