<svg xmlns="http://www.w3.org/2000/svg" viewBox="0 0 39.36 38.62"><defs><style>.cls-1{fill:#c3c3c3;}</style></defs><title>find-icon_2</title><g id="Layer_2" data-name="Layer 2"><g id="Layer_1-2" data-name="Layer 1"><path class="cls-1" d="M37.36,38.62A2,2,0,0,1,35.94,38L22.39,24.49a2,2,0,0,1,2.83-2.83L38.77,35.21a2,2,0,0,1,0,2.83A2,2,0,0,1,37.36,38.62Z"/><path class="cls-1" d="M14.53,29.07A14.54,14.54,0,1,1,29.07,14.53,14.55,14.55,0,0,1,14.53,29.07ZM14.53,4A10.54,10.54,0,1,0,25.07,14.53,10.55,10.55,0,0,0,14.53,4Z"/></g></g></svg>