<svg xmlns="http://www.w3.org/2000/svg" viewBox="0 0 40.02 40.02"><defs><style>.cls-1{fill:#c3c3c3;}</style></defs><title>refresh-icon</title><g id="Layer_2" data-name="Layer 2"><g id="Layer_1-2" data-name="Layer 1"><g id="actualizar"><g id="Group_89" data-name="Group 89"><g id="Group_88" data-name="Group 88"><path id="Path_41" data-name="Path 41" class="cls-1" d="M38.6,5.52a1.57,1.57,0,0,0-1.7,1.41h0l-.21,2.27A19.73,19.73,0,0,0,2.38,10.85a1.56,1.56,0,1,0,2.78,1.43A16.62,16.62,0,0,1,34.07,10.9L31.84,9.3A1.56,1.56,0,1,0,30,11.85l6.76,4.82A1.57,1.57,0,0,0,39,16.31a1.53,1.53,0,0,0,.28-.77L40,7.22A1.57,1.57,0,0,0,38.6,5.52Z"/></g></g><g id="Group_91" data-name="Group 91"><g id="Group_90" data-name="Group 90"><path id="Path_42" data-name="Path 42" class="cls-1" d="M37,27.06a1.57,1.57,0,0,0-2.1.68A16.61,16.61,0,0,1,6,29.12l2.23,1.59A1.56,1.56,0,1,0,10,28.17h0L3.23,23.34a1.56,1.56,0,0,0-2.18.37,1.47,1.47,0,0,0-.28.76L0,32.79a1.56,1.56,0,1,0,3.11.31v0l.21-2.27a19.74,19.74,0,0,0,34.31-1.65A1.57,1.57,0,0,0,37,27.06Z"/></g></g></g></g></g></svg>