<svg xmlns="http://www.w3.org/2000/svg" viewBox="0 0 56 29.64"><defs><style>.cls-1{fill:#00e6ff;}</style></defs><title>client-icon</title><g id="Layer_2" data-name="Layer 2"><g id="Layer_1-2" data-name="Layer 1"><g id="Group_194" data-name="Group 194"><path id="Path_73" data-name="Path 73" class="cls-1" d="M23.08,4.92A4.92,4.92,0,1,0,28,0h0A4.92,4.92,0,0,0,23.08,4.92Z"/><path id="Path_74" data-name="Path 74" class="cls-1" d="M28,13.13A9.84,9.84,0,0,0,18.16,23v6.67H37.84V23A9.84,9.84,0,0,0,28,13.13Z"/><path id="Path_75" data-name="Path 75" class="cls-1" d="M14.87,8.2A4.92,4.92,0,1,0,10,13.12h0A4.92,4.92,0,0,0,14.87,8.2Z"/><path id="Path_76" data-name="Path 76" class="cls-1" d="M51,8.2a4.93,4.93,0,1,0-4.92,4.92h0A4.93,4.93,0,0,0,51,8.2Z"/><path id="Path_80" data-name="Path 80" class="cls-1" d="M46.05,16.41a9.72,9.72,0,0,0-5.81,1.93A13,13,0,0,1,41.12,23v6.67H56V26.25A9.93,9.93,0,0,0,46.05,16.41Z"/><path id="Path_81" data-name="Path 81" class="cls-1" d="M0,26.25v3.39H14.88V23a13,13,0,0,1,.88-4.63A9.72,9.72,0,0,0,10,16.41,9.93,9.93,0,0,0,0,26.25Z"/></g></g></g></svg>