<svg xmlns="http://www.w3.org/2000/svg" viewBox="0 0 42.54 48.81"><defs><style>.cls-1{fill:#00e6ff;}</style></defs><title>inventory-icon</title><g id="Layer_2" data-name="Layer 2"><g id="Layer_1-2" data-name="Layer 1"><g id="Group_31" data-name="Group 31"><path class="cls-1" d="M17.52,32.63a1,1,0,0,1-.5-.13l-5-2.91a1,1,0,0,1-.5-.86V22.87A1,1,0,0,1,13,22l5.07,2.92a1,1,0,0,1,.5.88l0,5.83a1,1,0,0,1-.51.86A1,1,0,0,1,17.52,32.63Zm-4-4.48,3.05,1.76,0-3.53-3.07-1.77Z"/><path class="cls-1" d="M21.27,48.81a1,1,0,0,1-.5-.13L.5,37a1,1,0,0,1-.5-.87V12.7a1,1,0,0,1,.5-.87L20.77.13a1,1,0,0,1,1,0L42,11.83a1,1,0,0,1,.5.87V36.11A1,1,0,0,1,42,37L21.77,48.68A1,1,0,0,1,21.27,48.81ZM2,35.53,21.27,46.66,40.54,35.53V13.28L21.27,2.15,2,13.28Z"/><path class="cls-1" d="M21.27,25.4a1,1,0,0,1-.5-.13L.5,13.57a1,1,0,0,1,0-1.74L20.77.13a1,1,0,0,1,1,0L42,11.83a1,1,0,0,1,.5.86,1,1,0,0,1-.48.86l-7,4.3a1,1,0,1,1-1-1.7l5.57-3.42L21.27,2.15,3,12.7,21.77,23.53a1,1,0,0,1-.5,1.87Z"/><path class="cls-1" d="M21.27,48.81a1,1,0,0,1-1-1V24.41a1,1,0,0,1,.5-.87l7.61-4.34a1,1,0,1,1,1,1.73L22.27,25V47.81A1,1,0,0,1,21.27,48.81Z"/><path class="cls-1" d="M28.87,29.77l-.26,0a1,1,0,0,1-.74-1V20.58L8.09,9.19a1,1,0,0,1,0-1.73l5.07-2.93a1,1,0,0,1,1,0L34.43,16.21a1,1,0,0,1,.5.86v8.78a1,1,0,0,1-1.5.86l-1.66-1-2,3.52A1,1,0,0,1,28.87,29.77ZM10.59,8.32,29.37,19.13a1,1,0,0,1,.5.87v5l.67-1.16a1,1,0,0,1,.6-.46,1,1,0,0,1,.76.1l1,.59V17.65L13.66,6.55Z"/></g></g></g></svg>