<svg xmlns="http://www.w3.org/2000/svg" viewBox="0 0 43.85 36.69"><defs><style>.cls-1{fill:none;}.cls-1,.cls-2{stroke:#00e6ff;stroke-linecap:round;stroke-miterlimit:10;stroke-width:2px;}.cls-2{fill:#fff;}</style></defs><title>market-icon-on</title><g id="Layer_2" data-name="Layer 2"><g id="Layer_1-2" data-name="Layer 1"><g id="Group_193" data-name="Group 193"><ellipse id="Ellipse_5" data-name="Ellipse 5" class="cls-1" cx="22.73" cy="21.29" rx="20.51" ry="13.83" transform="translate(-4.81 6.74) rotate(-15.28)"/><ellipse id="Ellipse_6" data-name="Ellipse 6" class="cls-2" cx="21.12" cy="15.4" rx="20.51" ry="13.83" transform="translate(-3.31 6.11) rotate(-15.28)"/><g id="Group_6" data-name="Group 6"><path id="Path_3" data-name="Path 3" class="cls-1" d="M21.12,15.4c-1.74-2-1.09-4.65,1.46-6a6.67,6.67,0,0,1,7.77,1.1c1.74,2,1.09,4.64-1.46,6"/><path id="Path_4" data-name="Path 4" class="cls-1" d="M21.12,15.4c1.75,2,1.09,4.64-1.45,6a6.7,6.7,0,0,1-7.78-1.1c-1.74-2-1.09-4.65,1.46-6"/></g><line id="Line_1" data-name="Line 1" class="cls-1" x1="32.13" y1="9.54" x2="30.35" y2="10.49"/><line id="Line_2" data-name="Line 2" class="cls-1" x1="11.89" y1="20.3" x2="10.11" y2="21.25"/></g></g></g></svg>