<svg xmlns="http://www.w3.org/2000/svg" viewBox="0 0 43.85 36.67"><defs><style>.cls-1{fill:#00e6ff;}</style></defs><title>market-icon</title><g id="Layer_2" data-name="Layer 2"><g id="Layer_1-2" data-name="Layer 1"><path class="cls-1" d="M18.74,36.67C10.49,36.67,3.63,33,2,26.94a10.27,10.27,0,0,1-.36-3.41l.18-3L3.45,23c3.42,5.13,12.28,7.11,21.06,4.73S39.89,19.16,40.23,13l.16-3,1.67,2.47a10.78,10.78,0,0,1,1.42,3.1c2.16,7.89-5.4,16.85-16.85,20h0A30.19,30.19,0,0,1,18.74,36.67ZM4,26.59c2,6.71,11.87,9.88,22.16,7.07h0C36.39,30.84,43.29,23.09,41.6,16.31c-2,5.88-8.31,11.12-16.57,13.38S8.64,30.64,4,26.59Z"/><path class="cls-1" d="M17,30.79c-6.65,0-12.41-2.38-15.25-6.65A10.48,10.48,0,0,1,.38,21.06,11.82,11.82,0,0,1,1.8,11.93C4.61,7,10.37,3,17.22,1.09,28.65-2,39.71,1.83,41.87,9.72a10.13,10.13,0,0,1,.36,3.4h0C41.83,20.21,34.76,27,25,29.69A30.13,30.13,0,0,1,17,30.79ZM25.2,2a28.31,28.31,0,0,0-7.46,1C11.4,4.74,6.09,8.45,3.54,12.92A9.91,9.91,0,0,0,2.3,20.53,9.19,9.19,0,0,0,3.45,23c3.42,5.13,12.28,7.12,21.06,4.73S39.89,19.16,40.23,13h0A8.39,8.39,0,0,0,40,10.25C38.53,5.1,32.52,2,25.2,2Z"/><g id="Group_6" data-name="Group 6"><path class="cls-1" d="M28.89,17.49A1,1,0,0,1,28,17a1,1,0,0,1,.41-1.36,3.36,3.36,0,0,0,1.87-2.27,2.53,2.53,0,0,0-.69-2.18A5.66,5.66,0,0,0,23,10.27a3.37,3.37,0,0,0-1.86,2.27,2.52,2.52,0,0,0,.69,2.18,1,1,0,0,1-1.5,1.33,4.56,4.56,0,0,1-1.16-3.86,5.37,5.37,0,0,1,2.9-3.69A7.66,7.66,0,0,1,31,9.77a4.58,4.58,0,0,1,1.22,3.92,5.36,5.36,0,0,1-2.9,3.68A1,1,0,0,1,28.89,17.49Z"/><path class="cls-1" d="M16.53,23.17A7.67,7.67,0,0,1,11.2,21,4.6,4.6,0,0,1,10,17.09a5.37,5.37,0,0,1,2.9-3.69,1,1,0,0,1,.94,1.77A3.38,3.38,0,0,0,12,17.44a2.52,2.52,0,0,0,.69,2.18,5.65,5.65,0,0,0,6.56.88,3.37,3.37,0,0,0,1.86-2.27,2.53,2.53,0,0,0-.69-2.18,1,1,0,0,1,1.5-1.33A4.54,4.54,0,0,1,23,18.59a5.36,5.36,0,0,1-2.9,3.68A7.71,7.71,0,0,1,16.53,23.17Z"/></g><path class="cls-1" d="M30.35,11.48a1,1,0,0,1-.88-.53,1,1,0,0,1,.41-1.35l1.78-.95a1,1,0,0,1,.94,1.77l-1.78.95A1,1,0,0,1,30.35,11.48Z"/><path class="cls-1" d="M10.11,22.24a1,1,0,0,1-.47-1.88l1.78-.95a1,1,0,0,1,.94,1.77l-1.78.94A1,1,0,0,1,10.11,22.24Z"/></g></g></svg>