<svg xmlns="http://www.w3.org/2000/svg" viewBox="0 0 37.12 37.13"><defs><style>.cls-1{fill:#00e6ff;}</style></defs><title>permission-icon</title><g id="Layer_2" data-name="Layer 2"><g id="Layer_1-2" data-name="Layer 1"><g id="hotel"><path id="Path_31" data-name="Path 31" class="cls-1" d="M18.14,17.79,8.06,27.87a.84.84,0,0,0,1.19,1.19h0L19.33,19a.84.84,0,1,0-1.19-1.19Z"/><path id="Path_32" data-name="Path 32" class="cls-1" d="M33.86,3.26A11.12,11.12,0,0,0,15.8,15.54L.26,31.09a.82.82,0,0,0-.25.59V36.3H0a.84.84,0,0,0,.82.82H9.76a.85.85,0,0,0,.84-.84h0v-3.5h3.5a.85.85,0,0,0,.84-.84h0v-3.5h3.5a.85.85,0,0,0,.84-.84h0v-4l2.29-2.3A11.12,11.12,0,0,0,33.86,3.26ZM32.68,17.79a9.42,9.42,0,0,1-10.9,1.77.85.85,0,0,0-1,.16l-3,3a.82.82,0,0,0-.25.59v3.5H14.1a.85.85,0,0,0-.84.84h0v3.5H9.76a.85.85,0,0,0-.84.84h0v3.5h-6l4-4a.84.84,0,0,0,0-1.19.83.83,0,0,0-1.18,0l-4,4V32L17.4,16.32a.84.84,0,0,0,.16-1,9.44,9.44,0,1,1,15.11,2.44Z"/><path id="Path_33" data-name="Path 33" class="cls-1" d="M25.48,6.06h0a3.95,3.95,0,1,0,5.58,0A3.95,3.95,0,0,0,25.48,6.06Zm4.4,4.4a2.27,2.27,0,1,1-3.21-3.21h0a2.27,2.27,0,0,1,3.21,3.21Z"/></g></g></g></svg>