<svg xmlns="http://www.w3.org/2000/svg" viewBox="0 0 22.62 22.63"><defs><style>.cls-1{fill:#00e6ff;}</style></defs><title>permission-icon-on</title><g id="Layer_2" data-name="Layer 2"><g id="Layer_1-2" data-name="Layer 1"><g id="hotel"><path id="Path_31" data-name="Path 31" class="cls-1" d="M11.05,10.84,4.91,17a.52.52,0,0,0,.73.73h0l6.14-6.14a.52.52,0,0,0-.73-.73Z"/><path id="Path_32" data-name="Path 32" class="cls-1" d="M20.64,2a6.77,6.77,0,0,0-11,7.48L.16,18.94A.51.51,0,0,0,0,19.3v2.81H0a.52.52,0,0,0,.5.5H6a.51.51,0,0,0,.51-.52h0V20H8.59a.51.51,0,0,0,.51-.51h0V17.34h2.14a.51.51,0,0,0,.51-.52h0V14.39l1.4-1.4A6.77,6.77,0,0,0,20.64,2Zm-.73,8.85a5.73,5.73,0,0,1-6.64,1.08.5.5,0,0,0-.59.1l-1.8,1.8a.48.48,0,0,0-.15.36v2.13H8.59a.51.51,0,0,0-.51.52h0V19H6a.51.51,0,0,0-.51.51h0V21.6H1.75l2.44-2.44a.52.52,0,0,0-.73-.73L1,20.87V19.52L10.6,9.94a.5.5,0,0,0,.1-.59,5.75,5.75,0,1,1,9.21,1.49Z"/><path id="Path_33" data-name="Path 33" class="cls-1" d="M15.53,3.69h0a2.4,2.4,0,1,0,3.4,0A2.4,2.4,0,0,0,15.53,3.69Zm2.68,2.68a1.38,1.38,0,0,1-2-1.95h0a1.38,1.38,0,1,1,2,2Z"/></g></g></g></svg>