<svg xmlns="http://www.w3.org/2000/svg" viewBox="0 0 56.54 37.99"><defs><style>.cls-1{fill:#fff;stroke:#00e6ff;stroke-linecap:round;stroke-linejoin:round;stroke-width:2px;}</style></defs><title>provider-icon-on</title><g id="Layer_2" data-name="Layer 2"><g id="Layer_1-2" data-name="Layer 1"><g id="Group_46" data-name="Group 46"><g id="Group_43" data-name="Group 43"><path id="Path_19" data-name="Path 19" class="cls-1" d="M32.17,7.75,43.85,1,55.54,7.75,43.85,14.49Z"/><path id="Path_20" data-name="Path 20" class="cls-1" d="M43.85,28,32.17,21.24,43.85,14.5l11.69,6.74Z"/><path id="Path_21" data-name="Path 21" class="cls-1" d="M32.17,7.75,43.85,14.5V28L32.17,21.24Z"/><path id="Path_22" data-name="Path 22" class="cls-1" d="M55.54,7.75v13.5L43.85,28V14.5Z"/></g><g id="Group_44" data-name="Group 44"><path id="Path_23" data-name="Path 23" class="cls-1" d="M1,7.76,12.69,1,24.38,7.76,12.69,14.51Z"/><path id="Path_24" data-name="Path 24" class="cls-1" d="M12.69,28,1,21.26l11.69-6.75,11.68,6.75Z"/><path id="Path_25" data-name="Path 25" class="cls-1" d="M1,7.76l11.69,6.75V28L1,21.26Z"/><path id="Path_26" data-name="Path 26" class="cls-1" d="M24.37,7.76v13.5L12.69,28V14.51Z"/></g><g id="Group_45" data-name="Group 45"><path id="Path_27" data-name="Path 27" class="cls-1" d="M16.6,16.75,28.29,10,40,16.75,28.29,23.49Z"/><path id="Path_28" data-name="Path 28" class="cls-1" d="M28.29,37,16.6,30.24,28.29,23.5,40,30.24Z"/><path id="Path_29" data-name="Path 29" class="cls-1" d="M16.6,16.75,28.29,23.5V37L16.6,30.24Z"/><path id="Path_30" data-name="Path 30" class="cls-1" d="M40,16.75v13.5L28.29,37V23.5Z"/></g></g></g></g></svg>