<svg xmlns="http://www.w3.org/2000/svg" viewBox="0 0 56.54 37.99"><defs><style>.cls-1{fill:#00e6ff;}</style></defs><title>provider-icon</title><g id="Layer_2" data-name="Layer 2"><g id="Layer_1-2" data-name="Layer 1"><path class="cls-1" d="M43.85,15.49a1,1,0,0,1-.5-.13L31.66,8.61a1,1,0,0,1,0-1.73L43.35.13a1,1,0,0,1,1,0L56,6.88a1,1,0,0,1,0,1.73L44.35,15.36A1,1,0,0,1,43.85,15.49ZM34.16,7.75l9.69,5.59,9.69-5.59-9.69-5.6Z"/><path class="cls-1" d="M44.35,13.63l-.5-.29L32.66,6.88a1,1,0,0,0-1,0h0a1.56,1.56,0,0,0-.2.16,1.16,1.16,0,0,0-.16.21,1.6,1.6,0,0,0-.1.23.75.75,0,0,0,0,.26v5.07l2,1.15V9.48L40.3,13.6l.23.13,1.3.75,1,.59V26.25L41,25.17,39,24v2.31l2,1.16,2.3,1.32,0,0,.05,0a1,1,0,0,0,.5.14,1,1,0,0,0,1-1V14.49A1,1,0,0,0,44.35,13.63Z"/><path class="cls-1" d="M43.85,29a1,1,0,0,1-.5-.13,1,1,0,0,1-.5-.87V14.5a1,1,0,0,1,.5-.87L55,6.88a1,1,0,0,1,1,0,1,1,0,0,1,.5.87v13.5a1,1,0,0,1-.5.86L44.35,28.86A1,1,0,0,1,43.85,29Zm1-13.91V26.26l9.69-5.59V9.48Z"/><path class="cls-1" d="M12.69,15.51a1,1,0,0,1-.5-.14L.5,8.63a1,1,0,0,1,0-1.74L12.19.15a1,1,0,0,1,1,0L24.87,6.89a1,1,0,0,1,0,1.74L13.19,15.37A1,1,0,0,1,12.69,15.51ZM3,7.76l9.69,5.59,9.68-5.59L12.69,2.17Z"/><path class="cls-1" d="M12.69,29a1,1,0,0,1-.5-.13L.5,22.12a1,1,0,0,1-.5-.86V7.76a1,1,0,0,1,.5-.87,1,1,0,0,1,1,0l11.69,6.75a1,1,0,0,1,.5.87V28a1,1,0,0,1-1,1ZM2,20.68l9.69,5.59V15.09L2,9.49Z"/><path class="cls-1" d="M25.29,7.37a.7.7,0,0,0-.09-.17,1.58,1.58,0,0,0-.12-.15.83.83,0,0,0-.21-.16,1,1,0,0,0-1,0l-1.5.87-9.68,5.59-.5.29a1,1,0,0,0-.5.86V28a1,1,0,0,0,.45.83h0s0,0,0,0a0,0,0,0,0,0,0,1,1,0,0,0,.5.13A.78.78,0,0,0,13,29a1.17,1.17,0,0,0,.24-.09l2.41-1.39,2-1.16V24l-2,1.16-1.91,1.1V15.08l9.68-5.59V14l2-1.16V7.76A1,1,0,0,0,25.29,7.37Z"/><path class="cls-1" d="M32.18,22.4l-.52-.3a1,1,0,0,1-.5-.86v-.56l-2.87,1.66.5.29a1,1,0,0,1,.5.86v.58Zm-6.81-1.74v.6a1,1,0,0,1-.5.86l-.48.28,2.9,1.67V23.5a1,1,0,0,1,.5-.87l.5-.29Zm6.81,1.74-.52-.3a1,1,0,0,1-.5-.86v-.56l-2.87,1.66.5.29a1,1,0,0,1,.5.86v.58Zm-6.81-1.74v.6a1,1,0,0,1-.5.86l-.48.28,2.9,1.67V23.5a1,1,0,0,1,.5-.87l.5-.29Zm15.1-4.78-7.31-4.22-2-1.16L28.79,9.13a1,1,0,0,0-1,0l-2.42,1.4-2,1.15-7.27,4.2a1,1,0,0,0,0,1.73l1.5.87,4.79,2.76,1-.56V19.5L18.6,16.74,23.37,14l2-1.16,2.92-1.68,2.87,1.66,2,1.15L38,16.74l-4.81,2.78v1.14l1,.59L39,18.48l1.5-.87a1,1,0,0,0,0-1.73Zm-9.31,5.36v-.56l-2.87,1.66-2.92-1.68v.6a1,1,0,0,1-.5.86l-.48.28,2.9,1.67.5.29a1,1,0,0,0,.5.13,1,1,0,0,0,.5-.13l.5-.29,2.89-1.67-.52-.3A1,1,0,0,1,31.16,21.24Zm-5.79-.58v.6a1,1,0,0,1-.5.86l-.48.28,2.9,1.67V23.5a1,1,0,0,1,.5-.87l.5-.29Zm6.81,1.74-.52-.3a1,1,0,0,1-.5-.86v-.56l-2.87,1.66.5.29a1,1,0,0,1,.5.86v.58Zm-6.81-1.74v.6a1,1,0,0,1-.5.86l-.48.28,2.9,1.67V23.5a1,1,0,0,1,.5-.87l.5-.29Zm6.81,1.74-.52-.3a1,1,0,0,1-.5-.86v-.56l-2.87,1.66.5.29a1,1,0,0,1,.5.86v.58Z"/><path class="cls-1" d="M28.79,22.63l-.5-.29-2.92-1.68v.6a1,1,0,0,1-.5.86l-.48.28,2.9,1.67V35.25L17.6,29.66V18.48l4.79,2.76,1-.56V19.5L18.6,16.74l-1.5-.86a1,1,0,0,0-1.5.86v13.5a1,1,0,0,0,.5.86l11.63,6.71h0l.05,0a1,1,0,0,0,.5.14,1,1,0,0,0,.5-.14,1,1,0,0,0,.5-.86V23.49A1,1,0,0,0,28.79,22.63Z"/><path class="cls-1" d="M25.37,20.65v.61a1,1,0,0,1-.5.86l-.48.28-2-1.16,1-.56V19.5Z"/><path class="cls-1" d="M40.47,15.88a1,1,0,0,0-1,0l-1.5.86-4.81,2.78v1.14l1,.59L39,18.48V29.67l-9.68,5.59V24.07l2.89-1.67-.52-.3a1,1,0,0,1-.5-.86v-.56l-2.87,1.66-.5.29a1,1,0,0,0-.5.87V37a1,1,0,0,0,.44.82h0a.1.1,0,0,0,.05,0,1,1,0,0,0,.5.13,1,1,0,0,0,.5-.13l11.68-6.75a1,1,0,0,0,.5-.87V16.74A1,1,0,0,0,40.47,15.88Z"/><path class="cls-1" d="M34.18,21.25l-2,1.15-.52-.3a1,1,0,0,1-.5-.86v-.56l2-1.15v1.13Z"/></g></g></svg>